Coordinates
version=1
nRows=10
nColumns=22
inDegrees=yes

Units are S.I. units (second, meters, Newtons, ...)
If the header above contains a line with 'inDegrees', this indicates whether rotational values are in degrees (yes) or radians (no).

endheader
time	pelvis_tilt	pelvis_list	pelvis_rotation	pelvis_tx	pelvis_ty	pelvis_tz	hip_flexion_r	hip_adduction_r	hip_rotation_r	knee_angle_r	ankle_angle_r	subtalar_angle_r	hip_flexion_l	hip_adduction_l	hip_rotation_l	knee_angle_l	ankle_angle_l	subtalar_angle_l	lumbar_extension	lumbar_bending	lumbar_rotation
      1.30000000	     -0.28994176	     -6.64245192	     -1.57015950	     -1.41129901	      1.01637434	     -0.16149895	     -0.35976206	     12.09000288	     -3.99502798	     -8.76948616	      9.89212812	     -3.12624200	     10.77751681	     -9.14351532	     -0.35110931	    -30.14691116	     15.22592466	     -0.49655184	    -12.41791329	      5.90438894	      3.56225838
      1.31000000	     -0.29510854	     -6.70609230	     -1.30668388	     -1.41002832	      1.01606220	     -0.16125422	     -0.44540116	     12.19816643	     -4.17116437	     -8.71611052	     10.00629512	     -3.10219869	     11.50248791	     -9.15834061	      0.07502466	    -31.43625348	     15.05122863	     -0.54952845	    -12.42742756	      5.98085039	      3.55946356
      1.32000000	     -0.19543817	     -6.77534808	     -1.06282937	     -1.40859934	      1.01596401	     -0.16097352	     -0.67061102	     12.31336421	     -4.32122909	     -8.62960154	     10.05281520	     -3.09519506	     12.08637660	     -9.18109204	      0.43760512	    -32.68589637	     14.91156707	     -0.61547717	    -12.55564477	      6.05011732	      3.60840769
      1.33000000	     -0.17991174	     -6.80524885	     -0.84356686	     -1.40711406	      1.01576904	     -0.16071381	     -0.77580305	     12.38359668	     -4.47495083	     -8.60531240	     10.15461169	     -3.09230931	     12.75814008	     -9.14568617	      0.80554543	    -33.91724919	     14.74870151	     -0.71820873	    -12.58050360	      6.07791396	      3.68749820
      1.34000000	     -0.10005304	     -6.82604167	     -0.65496360	     -1.40551310	      1.01570459	     -0.16040214	     -0.95798520	     12.44499055	     -4.59742088	     -8.58318612	     10.22407542	     -3.09820987	     13.34037176	     -9.11107946	      1.08822680	    -35.10535004	     14.63635876	     -0.80903318	    -12.68334338	      6.08388798	      3.77485437
      1.35000000	     -0.07693916	     -6.81777541	     -0.48300059	     -1.40383606	      1.01558134	     -0.16014116	     -1.06894831	     12.47043383	     -4.73739518	     -8.58715594	     10.31777848	     -3.11465531	     13.96890825	     -9.01823853	      1.41153693	    -36.23794328	     14.56307487	     -0.92362887	    -12.71585540	      6.06236425	      3.91168425
      1.36000000	     -0.04087489	     -6.79111188	     -0.33354635	     -1.40207358	      1.01550054	     -0.15987795	     -1.19186826	     12.47417971	     -4.86245771	     -8.60823628	     10.41421684	     -3.13942203	     14.56581179	     -8.89859446	      1.70735314	    -37.30466763	     14.54874465	     -1.03449634	    -12.76645426	      6.01745143	      4.05337614
      1.37000000	     -0.01467038	     -6.74250612	     -0.20109986	     -1.40022740	      1.01542520	     -0.15962829	     -1.30250520	     12.45180261	     -4.99060317	     -8.64359661	     10.51667967	     -3.17106192	     15.15571578	     -8.73896088	      2.00887034	    -38.29436106	     14.59062398	     -1.14803865	    -12.80643110	      5.94683185	      4.21006366
      1.38000000	      0.00285319	     -6.67613218	     -0.08250040	     -1.39829598	      1.01535528	     -0.15940995	     -1.40453498	     12.40662991	     -5.12056882	     -8.68939493	     10.62806479	     -3.20737902	     15.73949132	     -8.54310311	      2.31520335	    -39.20232879	     14.67989410	     -1.26274636	    -12.83710639	      5.86017547	      4.37727541
      1.39000000	      0.01240465	     -6.59216072	      0.02142376	     -1.39628090	      1.01529202	     -0.15920907	     -1.50011690	     12.34018951	     -5.24369710	     -8.74396302	     10.74644441	     -3.24537534	     16.31608339	     -8.31295955	      2.62693784	    -40.02227294	     14.79929233	     -1.37478360	    -12.86052765	      5.75490528	      4.55733390
